# xmcd CD database file
#
# Track frame offsets:
#	182
#	13495
#	25037
#	41452
#	58022
#	72620
#	88370
#	103675
#	120945
#	136045
#	152615
#
# Disc length: 2230 seconds
#
# Revision: 0
# Processed by: cddbd v1.5.1PL0 Copyright (c) Steve Scherf et al.
# Submitted via: CDex 1.51
#
DISCID=8f08b40b
DTITLE=Marco Gottardi - Open Your Heart
DYEAR=1900
DGENRE=Country
TTITLE0=Break Your Heart
TTITLE1=His Latest Flame
TTITLE2=Flying High
TTITLE3=The Last Train
TTITLE4=I Need A Lover
TTITLE5=Back My Love
TTITLE6=Open Your Heart
TTITLE7=Cinderella
TTITLE8=Music
TTITLE9=I Just Needed Time
TTITLE10=The Eagle
EXTD=
EXTT0=
EXTT1=
EXTT2=
EXTT3=
EXTT4=
EXTT5=
EXTT6=
EXTT7=
EXTT8=
EXTT9=
EXTT10=
PLAYORDER=
